<mxfile host="app.diagrams.net" modified="2023-05-06T06:17:26.158Z" agent="Mozilla/5.0 (Windows NT 10.0; Win64; x64) AppleWebKit/537.36 (KHTML, like Gecko) Chrome/112.0.0.0 Safari/537.36" version="21.2.9" etag="Zq5N-4-uZU8T3V5IfjgZ" type="github">
  <diagram name="페이지-1" id="3uLIu0GgqHWqiH-1mbp1">
    <mxGraphModel>
      <root>
        <mxCell id="0" />
        <mxCell id="1" parent="0" />
      </root>
    </mxGraphModel>
  </diagram>
</mxfile>
